<?xml version="1.0" encoding="UTF-8"?>
<svg version="1.1" xmlns="http://www.w3.org/2000/svg" width="512" height="512">
<path d="M0 0 C1.66405867 0.49366627 3.32862389 0.98562775 4.99365234 1.47601318 C9.4255353 2.78639724 13.85016013 4.11979463 18.27353287 5.45858383 C22.86448411 6.84444799 27.46118113 8.21098377 32.05737305 9.5793457 C37.61378557 11.23513284 43.16934232 12.89363627 48.72175598 14.56278992 C59.30786 17.74495906 69.90533342 20.8812503 80.52514076 23.94906425 C85.13431148 25.28222728 89.74002536 26.62730382 94.34628296 27.9704895 C96.7766972 28.67643045 99.20851545 29.37755668 101.64175415 30.07369995 C104.97409117 31.02894614 108.29997658 32.00402713 111.625 32.984375 C112.58567383 33.25425232 113.54634766 33.52412964 114.53613281 33.80218506 C119.88436526 35.40437592 123.26101686 36.86213747 126.69921875 41.34765625 C127.01171875 44.16015625 127.01171875 44.16015625 126.69921875 46.34765625 C130.02822511 47.03757105 133.36255947 47.69588898 136.69921875 48.34765625 C137.39789063 48.49976563 138.0965625 48.651875 138.81640625 48.80859375 C140.83039842 49.23824468 140.83039842 49.23824468 143.69921875 49.34765625 C145.30333121 47.99359764 145.30333121 47.99359764 146.69921875 46.34765625 C151.59490454 45.03395233 154.9879108 45.6723807 159.80273438 47.08251953 C160.82834724 47.37749077 160.82834724 47.37749077 161.87467957 47.67842102 C164.12225575 48.32874934 166.36380711 48.99756066 168.60546875 49.66796875 C170.17415587 50.12893036 171.74304769 50.58919591 173.31213379 51.04879761 C176.59622414 52.01403252 179.87735391 52.98862671 183.15673828 53.96972656 C187.34757465 55.22253762 191.54525315 56.45035308 195.74555206 57.67100716 C198.98646061 58.61613636 202.22309848 59.575264 205.45866394 60.53850937 C207.00421012 60.99665655 208.55109033 61.45032922 210.09931946 61.89932632 C212.26932694 62.53077101 214.43280412 63.18110658 216.59570312 63.83642578 C217.8255896 64.20140167 219.05547607 64.56637756 220.32263184 64.94241333 C224.79660339 66.80435766 228.26903856 69.25612107 231.05078125 73.32421875 C232.80427144 78.79595321 232.47234744 84.57590301 230.19921875 89.78515625 C224.62687753 95.496806 216.81585498 97.44147314 209.32421875 99.59765625 C208.42316406 99.86578125 207.52210938 100.13390625 206.59375 100.41015625 C200.00031888 102.34765625 200.00031888 102.34765625 197.69921875 102.34765625 C197.69921875 121.15765625 197.69921875 139.96765625 197.69921875 159.34765625 C199.34921875 159.67765625 200.99921875 160.00765625 202.69921875 160.34765625 C211.1934662 164.41468992 216.49407325 171.17035813 220.13671875 179.72265625 C221.73605148 190.0294672 221.20095657 198.90248527 215.09765625 207.640625 C214.05120018 209.00200979 212.97815272 210.34367265 211.87109375 211.65625 C210.41446571 213.41569913 210.41446571 213.41569913 210.69921875 216.34765625 C211.42109319 217.85132355 212.20046293 219.32776747 213.01171875 220.78515625 C220.4394835 235.40987949 220.79181714 252.96905078 221.07421875 269.09765625 C221.1002417 269.90654297 221.12626465 270.71542969 221.15307617 271.54882812 C221.17206148 277.83885846 219.63180479 283.17123721 215.28686523 287.87744141 C208.14083573 294.18040644 200.67342694 293.72021069 191.66235352 293.71826172 C189.40368581 293.72262348 187.14699296 293.75894486 184.88867188 293.796875 C176.61786187 293.86199182 169.71140451 293.82820948 163.19848633 288.00610352 C157.32632828 281.7208393 157.37285731 274.81957324 157.51171875 266.6875 C158.22872361 247.82579099 160.0373694 230.42285927 168.69921875 213.34765625 C168.22871094 212.85136719 167.75820313 212.35507812 167.2734375 211.84375 C160.57914667 204.53962729 157.32747594 197.71039935 157.48046875 187.59375 C158.49719693 177.15413032 163.71618195 168.9474111 171.69921875 162.34765625 C174.98175962 160.43340244 177.84399923 159.34765625 181.69921875 159.34765625 C181.69921875 142.18765625 181.69921875 125.02765625 181.69921875 107.34765625 C175.48078125 109.29671875 175.48078125 109.29671875 169.13671875 111.28515625 C157.95889109 114.76698681 146.75264648 118.13818262 135.51171875 121.41015625 C134.83019745 121.60946747 134.14867615 121.80877869 133.44650269 122.01412964 C131.51731591 122.57760571 129.58681231 123.13656742 127.65625 123.6953125 C126.5525708 124.01508057 125.4488916 124.33484863 124.31176758 124.66430664 C121.69921875 125.34765625 121.69921875 125.34765625 119.69921875 125.34765625 C119.7081012 126.23999969 119.71698364 127.13234314 119.72613525 128.05172729 C119.80656165 136.49562579 119.86732503 144.93939408 119.90646744 153.38358879 C119.9272681 157.72399218 119.95544655 162.06407686 120.00097656 166.40429688 C120.04470496 170.59942852 120.06841231 174.79425521 120.07872772 178.98959732 C120.086071 180.58346476 120.10040982 182.17731708 120.12213898 183.77105331 C120.25264849 193.747695 120.14710843 202.69388216 113.70458984 210.88305664 C108.25130348 215.41187511 102.76043249 218.82120716 96.32421875 221.78515625 C95.3381665 222.24615723 94.35211426 222.7071582 93.33618164 223.18212891 C70.54959325 233.53141606 46.6230079 239.4598112 22.0234375 243.484375 C20.92753296 243.66528687 19.83162842 243.84619873 18.70251465 244.03259277 C16.03503073 244.47268761 13.36726955 244.91101365 10.69921875 245.34765625 C11.53336304 245.6018634 12.36750732 245.85607056 13.22692871 246.11798096 C21.11446986 248.52310532 28.99988182 250.93506412 36.88301849 253.35458755 C40.93520459 254.59804039 44.98814573 255.83890099 49.04296875 257.07373047 C52.96117333 258.26706146 56.87718851 259.46734089 60.79182434 260.67232513 C62.28047362 261.12924443 63.7698758 261.5837187 65.26005554 262.03562164 C87.3065996 268.72627768 87.3065996 268.72627768 93.69921875 278.34765625 C101.3846844 293.08977672 99.24230288 310.62790671 94.57421875 325.97265625 C91.90623138 333.48079771 88.2630317 339.82013095 83.69921875 346.34765625 C83.21710938 347.04632813 82.735 347.745 82.23828125 348.46484375 C77.693178 354.3761052 70.74247984 358.99990255 63.69921875 361.34765625 C54.2856986 362.28295792 46.19859556 360.15799813 37.30859375 357.30859375 C35.91080821 356.87459587 34.51253837 356.44215523 33.11383057 356.01113892 C30.12124853 355.08552319 27.13219046 354.1495543 24.14550781 353.20507812 C19.35870771 351.69148672 14.56476586 350.20146213 9.76953125 348.71484375 C3.91112159 346.89706603 -1.94559918 345.07403543 -7.80019379 343.24400711 C-18.03385026 340.0457911 -28.27965406 336.88913119 -38.53515625 333.76171875 C-39.27066963 333.53740551 -40.00618301 333.31309227 -40.76398468 333.08198166 C-44.4628616 331.95417449 -48.16197849 330.82715692 -51.86120605 329.70050049 C-58.59118423 327.6503617 -65.31899704 325.59313508 -72.0470047 323.53654099 C-75.7981777 322.38996511 -79.54948622 321.2438328 -83.30078125 320.09765625 C-84.8007819 319.63932505 -86.3007819 319.18099172 -87.80078125 318.72265625 C-88.91453125 318.38234375 -88.91453125 318.38234375 -90.05078125 318.03515625 C-92.30078125 317.34765625 -94.55078125 316.66015625 -96.80078125 315.97265625 C-97.54330076 315.7457759 -98.28582027 315.51889555 -99.05084038 315.28514004 C-100.55064467 314.82686527 -102.05044757 314.36858598 -103.5502491 313.91030216 C-107.30323215 312.76353569 -111.05623927 311.61684811 -114.80929565 310.47032166 C-121.52370073 308.41904593 -128.23794771 306.36726172 -134.95126915 304.31244183 C-138.65358907 303.1792511 -142.35605386 302.04653427 -146.05859375 300.9140625 C-146.79356205 300.68925264 -147.52853035 300.46444279 -148.28577042 300.23282051 C-158.64811723 297.06422552 -169.01711637 293.91820135 -179.39080811 290.78695679 C-185.23729549 289.02211929 -191.08201134 287.25144763 -196.92634201 285.47948265 C-201.68549539 284.03713187 -206.44690286 282.60256924 -211.21018791 281.17392635 C-214.15344228 280.28909176 -217.09437231 279.39671997 -220.03473282 278.50232124 C-221.38891686 278.09207656 -222.74403746 277.68490753 -224.10018539 277.28120232 C-245.76355099 270.82714455 -245.76355099 270.82714455 -251.05078125 262.74609375 C-258.86252484 247.75731074 -257.99545725 230.23115829 -253.03271484 214.43994141 C-248.17872137 200.56444973 -240.14656641 188.0760148 -227.30078125 180.34765625 C-214.71097333 174.58076432 -201.38098322 180.28469599 -189.11328125 184.28515625 C-187.31107452 184.85648481 -185.50834244 185.42615892 -183.70507812 185.99414062 C-170.88424883 190.05592246 -170.88424883 190.05592246 -168.30078125 191.34765625 C-168.30078125 169.56765625 -168.30078125 147.78765625 -168.30078125 125.34765625 C-172.26078125 124.35765625 -176.22078125 123.36765625 -180.30078125 122.34765625 C-183.31046131 121.50874493 -186.31058133 120.65794916 -189.30712891 119.77563477 C-190.1218718 119.53778259 -190.93661469 119.29993042 -191.77604675 119.05487061 C-194.42306012 118.28129587 -197.06901391 117.50417481 -199.71484375 116.7265625 C-201.57943741 116.17985767 -203.44405164 115.63322301 -205.3086853 115.08665466 C-209.19718409 113.9461307 -213.08509512 112.80362778 -216.97265625 111.65991211 C-221.9314142 110.20139998 -226.89211506 108.74961872 -231.85334206 107.29953098 C-235.69782655 106.17470925 -239.54098776 105.04541825 -243.38380051 103.91489983 C-245.21160277 103.37793158 -247.03986492 102.84252595 -248.86861038 102.30877876 C-275.57115353 94.50964987 -275.57115353 94.50964987 -279.30078125 88.34765625 C-281.27403309 84.40115258 -280.74428026 79.64898912 -280.30078125 75.34765625 C-277.7191454 70.18438455 -274.72139704 67.24291537 -269.31666565 65.24398804 C-267.55612099 64.72755234 -267.55612099 64.72755234 -265.76000977 64.20068359 C-265.10401228 64.00575632 -264.44801479 63.81082905 -263.7721386 63.60999489 C-261.57691889 62.95989318 -259.37839183 62.32180175 -257.1796875 61.68359375 C-255.60363228 61.21947592 -254.02779625 60.75461321 -252.4521637 60.2890625 C-248.15974285 59.0230449 -243.86435605 57.76737232 -239.56839752 56.5134201 C-235.00654161 55.17989119 -230.44750827 53.83678125 -225.88818359 52.49462891 C-218.22101414 50.23885129 -210.55223576 47.98862304 -202.88232422 45.7421875 C-190.91213503 42.23594551 -178.94692498 38.71289845 -166.98250961 35.18701363 C-157.27400654 32.32606826 -147.56456267 29.46844761 -137.8515625 26.62280273 C-134.33587694 25.59249167 -130.82025484 24.56196438 -127.3046875 23.53125 C-126.43958683 23.27764647 -125.57448616 23.02404293 -124.68317032 22.76275444 C-113.14493808 19.37859002 -101.61993101 15.95285115 -90.10559082 12.48828125 C-84.01290983 10.65514294 -77.91660649 8.83419398 -71.81941605 7.0161171 C-66.93781538 5.55927137 -62.06148913 4.08630516 -57.18863964 2.60046864 C-54.19258845 1.69131566 -51.19190879 0.79827024 -48.18976021 -0.09051704 C-46.81926334 -0.49976793 -45.45068375 -0.91551316 -44.08442497 -1.33869743 C-28.03332457 -6.30241939 -15.6365433 -4.78451005 0 0 Z " fill="#000101" transform="translate(280.30078125,77.65234375)"/>
<path d="M0 0 C1.06025391 0.30035156 2.12050781 0.60070312 3.21289062 0.91015625 C9.57462442 2.73222504 15.85702856 4.73408937 22.12573242 6.85253906 C25.52214398 7.98704237 28.93484042 9.00543391 32.375 10 C33.82433474 10.42147633 35.27354418 10.84338372 36.72265625 11.265625 C37.51816895 11.49701172 38.31368164 11.72839844 39.13330078 11.96679688 C44.53121526 13.54475474 49.92109988 15.14995717 55.3125 16.75 C62.64371285 18.92392115 69.97531287 21.09632142 77.3125 23.25 C84.79508966 25.4467761 92.27279302 27.65997793 99.75 29.875 C101.45736328 30.38063477 101.45736328 30.38063477 103.19921875 30.89648438 C104.84664063 31.3847168 104.84664063 31.3847168 106.52734375 31.8828125 C107.58985352 32.19694092 108.65236328 32.51106934 109.74707031 32.8347168 C111.73375812 33.42790671 113.71770998 34.03037003 115.69824219 34.64379883 C116.57512695 34.91474365 117.45201172 35.18568848 118.35546875 35.46484375 C119.11496826 35.70323975 119.87446777 35.94163574 120.65698242 36.18725586 C124.27093089 37.1307547 127.0860326 37.19974607 130.8125 36.75 C131.493125 36.069375 132.17375 35.38875 132.875 34.6875 C133.514375 34.048125 134.15375 33.40875 134.8125 32.75 C137.46044939 32.80403978 139.29021575 33.08962012 141.8125 33.75 C142.76898438 33.9975 143.72546875 34.245 144.7109375 34.5 C147.4195555 35.22415494 150.11797753 35.97526388 152.8125 36.75 C152.956875 37.9875 153.10125 39.225 153.25 40.5 C153.91129114 43.07889445 154.26168159 44.36639577 156.47241211 45.90600586 C163.1549931 48.65593455 169.97270645 50.65363421 176.9375 52.5625 C179.42754339 53.2587735 181.91712033 53.95671706 184.40625 54.65625 C185.64632813 55.00429687 186.88640625 55.35234375 188.1640625 55.7109375 C196.23981434 58.01088395 204.25788803 60.5030482 212.28222656 62.97509766 C216.45325255 64.25248443 220.63258129 65.50207088 224.8125 66.75 C221.4449722 68.49112115 218.13595924 69.65622143 214.5 70.75 C213.41074219 71.08 212.32148438 71.41 211.19921875 71.75 C209.52279297 72.245 209.52279297 72.245 207.8125 72.75 C206.23891724 73.26867142 206.23891724 73.26867142 204.63354492 73.79782104 C200.3766908 74.85860075 196.64836299 75.04303062 192.2890625 74.98486328 C191.46669098 74.97865526 190.64431946 74.97244724 189.79702759 74.9660511 C179.55802542 74.81566587 169.3818378 73.89719114 159.1875 72.9921875 C157.01858852 72.80581393 154.84961071 72.62021098 152.68057251 72.43531799 C148.09420866 72.04301101 143.50828776 71.6460019 138.92266846 71.24508667 C131.74915985 70.61820526 124.57466409 70.00322159 117.39990234 69.39086914 C114.98263498 69.18446952 112.56536814 68.97806388 110.14810181 68.77165222 C108.95183796 68.66952108 107.75557411 68.56738995 106.52305984 68.46216393 C102.89863887 68.15236096 99.27430383 67.84157095 95.6499939 67.5304718 C75.84274453 65.8309734 56.0325132 64.17185804 36.21679688 62.57403564 C33.05738216 62.31913771 29.8982197 62.06141332 26.73925781 61.80096436 C23.07413231 61.49879729 19.40863765 61.20162373 15.74277878 60.90849113 C13.82423108 60.75396053 11.90607536 60.59458586 9.98794556 60.43495178 C-1.59460885 59.44473782 -1.59460885 59.44473782 -13.1875 59.75 C-15.76740801 62.32990801 -15.50348838 64.25244461 -15.6484375 67.77734375 C-14.98763837 70.60534001 -13.60375011 71.22673004 -11.1875 72.75 C-9.02158553 73.31667618 -9.02158553 73.31667618 -6.6887207 73.44189453 C-5.80291824 73.51852325 -4.91711578 73.59515198 -4.00447083 73.67410278 C-2.57333199 73.77741409 -2.57333199 73.77741409 -1.11328125 73.8828125 C-0.11604538 73.96498016 0.88119049 74.04714783 1.90864563 74.13180542 C5.10491003 74.3919185 8.30228187 74.63348997 11.5 74.875 C13.60230818 75.04440254 15.70452333 75.21496378 17.80664062 75.38671875 C27.55150335 76.1722252 37.29591512 76.86100766 47.05741882 77.39924622 C53.49731534 77.76518019 59.89804535 78.3955302 66.3125 79.0625 C82.50422211 80.68886397 98.71870709 82.00382268 114.93945312 83.30395508 C116.9388063 83.46430291 118.9381553 83.62470276 120.9375 83.78515625 C121.90828491 83.86300858 122.87906982 83.9408609 123.87927246 84.02107239 C134.52806136 84.88001856 145.1705975 85.81003159 155.8125 86.75 C152.6914563 88.8306958 150.21074574 89.6519527 146.625 90.703125 C145.3779126 91.07219971 144.1308252 91.44127441 142.84594727 91.8215332 C141.50147115 92.21437704 140.1569886 92.60719886 138.8125 93 C136.07088291 93.8087324 133.330329 94.6210354 130.58984375 95.43359375 C129.91420883 95.63345383 129.23857391 95.8333139 128.54246521 96.03923035 C123.13020104 97.64423295 117.74813447 99.33185949 112.375 101.0625 C105.9612983 103.11677637 99.52005104 104.93566024 93 106.62890625 C79.36734935 110.22266193 65.88033139 114.41441299 52.38305664 118.48217773 C45.95239021 120.41692739 39.50994881 122.30948615 33.0625 124.1875 C32.07080811 124.4764917 31.07911621 124.7654834 30.05737305 125.06323242 C24.74969519 126.60836497 19.44012174 128.14676002 14.12890625 129.6796875 C13.0399707 129.99494385 11.95103516 130.3102002 10.82910156 130.63500977 C8.74183221 131.23921094 6.65396895 131.84136536 4.56542969 132.44116211 C3.6221582 132.71452393 2.67888672 132.98788574 1.70703125 133.26953125 C0.88050049 133.50776611 0.05396973 133.74600098 -0.79760742 133.99145508 C-3.25343576 134.73691123 -3.25343576 134.73691123 -5.83178711 135.8215332 C-18.57155815 140.84271149 -34.8617065 132.90653861 -47.13232422 128.96459961 C-53.20511782 127.02309574 -59.3027141 125.34520257 -65.48046875 123.765625 C-68.17115728 123.02845006 -70.78454539 122.24318006 -73.42578125 121.359375 C-74.13710205 121.12355713 -74.84842285 120.88773926 -75.58129883 120.64477539 C-76.94102553 120.18817075 -78.29676582 119.71943339 -79.6472168 119.23608398 C-84.17853633 117.71938082 -87.54912532 117.63059027 -92.1875 118.75 C-94.55160488 120.68731528 -94.55160488 120.68731528 -94.5 124.1875 C-94.50370451 127.58772467 -94.50370451 127.58772467 -93.05908203 129.34228516 C-90.49782747 131.26873882 -88.00548296 131.94132767 -84.9296875 132.8359375 C-83.67244873 133.20686523 -82.41520996 133.57779297 -81.11987305 133.95996094 C-79.76747193 134.34850424 -78.41501311 134.73684673 -77.0625 135.125 C-75.68439032 135.52807879 -74.30654228 135.93205321 -72.92895508 136.33691406 C-70.22544497 137.12989083 -67.52053303 137.9177203 -64.81396484 138.70019531 C-61.16018604 139.75790696 -57.51150007 140.8316606 -53.86425781 141.91162109 C-51.29922094 142.67030284 -48.7319654 143.42128655 -46.16455078 144.171875 C-42.37976039 145.27861538 -38.59609352 146.38917626 -34.8125 147.5 C-34.09151123 147.71108398 -33.37052246 147.92216797 -32.62768555 148.13964844 C-29.79858288 148.97007308 -26.98496537 149.81751154 -24.1875 150.75 C-5.05469543 153.03451398 13.85983502 145.14560753 31.76416016 139.30639648 C38.06778419 137.26032277 44.40778526 135.45119923 50.8125 133.75 C58.17196207 131.79243265 65.44218846 129.65787075 72.6875 127.3125 C80.69753558 124.72025079 88.733262 122.24347623 96.8125 119.875 C97.8216748 119.5766626 98.83084961 119.2783252 99.87060547 118.97094727 C100.82080566 118.69436279 101.77100586 118.41777832 102.75 118.1328125 C103.58402344 117.88934082 104.41804688 117.64586914 105.27734375 117.39501953 C108.10415419 116.67579446 110.93078862 116.19410654 113.8125 115.75 C114.13633449 120.01771704 114.37069681 124.27880031 114.52661133 128.55517578 C114.59161849 130.00533544 114.68008361 131.45465447 114.79321289 132.90185547 C115.1654945 137.7903678 115.19433812 142.01189657 113.8125 146.75 C109.96224556 150.60422117 105.72158947 152.58612277 100.8125 154.75 C99.13579811 155.63921857 97.46218559 156.53430895 95.79296875 157.4375 C94.20107614 158.22016687 92.60325091 158.99087152 91 159.75 C90.12327637 160.16588379 89.24655273 160.58176758 88.34326172 161.01025391 C40.09490226 183.2297815 -18.40612992 188.23700761 -70.1875 176.75 C-71.38125244 176.49694092 -71.38125244 176.49694092 -72.59912109 176.23876953 C-90.52637 172.41887863 -106.76088986 166.54502896 -123.3125 158.6875 C-124.35567383 158.19306396 -125.39884766 157.69862793 -126.47363281 157.18920898 C-128.46680801 156.2206875 -130.4462959 155.22337377 -132.40942383 154.1953125 C-135.14337287 152.72570802 -135.14337287 152.72570802 -137.90893555 151.6015625 C-140.68394184 150.227824 -142.29781793 149.21651745 -144.1875 146.75 C-145.28640843 141.4184446 -145.03830062 136.26628207 -144.75 130.875 C-144.70481435 129.40897676 -144.66375678 127.94282011 -144.62695312 126.4765625 C-144.528174 122.8982532 -144.37313479 119.32497695 -144.1875 115.75 C-141.11430675 116.33173065 -138.14147444 117.00944271 -135.15625 117.94140625 C-134.42792969 118.16376953 -133.69960937 118.38613281 -132.94921875 118.61523438 C-131.4403023 119.08041846 -129.93248301 119.54917631 -128.42578125 120.02148438 C-122.91453351 121.70504522 -122.91453351 121.70504522 -117.1875 121.75 C-114.75054526 120.22981752 -114.75054526 120.22981752 -113.1875 117.75 C-112.52069632 114.70720628 -112.52069632 114.70720628 -113.1875 111.75 C-121.25993837 104.17609702 -137.33410705 102.26950842 -147.69946289 99.41381836 C-154.28268236 97.5921061 -160.81190521 95.65942281 -167.3125 93.5625 C-173.84039026 91.45922721 -180.38752341 89.5889244 -187.02734375 87.86328125 C-196.47174688 85.37324465 -205.82037533 82.51310294 -215.1875 79.75 C-216.34620605 79.40855957 -217.50491211 79.06711914 -218.69873047 78.71533203 C-222.25792984 77.66588056 -225.81660524 76.61467625 -229.375 75.5625 C-230.46006836 75.2418457 -231.54513672 74.92119141 -232.66308594 74.59082031 C-240.18687152 72.36061284 -247.69119729 70.07084859 -255.1875 67.75 C-252.96489081 65.52739081 -251.93497737 65.24745114 -248.953125 64.48828125 C-248.07978516 64.25995605 -247.20644531 64.03163086 -246.30664062 63.79638672 C-245.35982422 63.5542041 -244.41300781 63.31202148 -243.4375 63.0625 C-235.44665562 60.95680452 -227.54920648 58.67109359 -219.6875 56.125 C-210.72118507 53.22905218 -201.72118399 50.54338878 -192.63476562 48.04931641 C-178.94442624 44.28753527 -165.35793903 40.28932899 -151.81445312 36.02783203 C-143.38305158 33.38990428 -134.91487982 30.97772845 -126.37817383 28.70678711 C-121.00415825 27.27058864 -115.75350177 25.6451169 -110.5 23.8125 C-104.80690953 21.98641438 -99.01622885 20.50782922 -93.2421875 18.9609375 C-88.50557794 17.68321449 -83.82220762 16.36675847 -79.1875 14.75 C-73.79618276 12.8730801 -68.32512136 11.4071195 -62.8125 9.9375 C-53.17799303 7.36327499 -43.68627437 4.44471897 -34.203125 1.36328125 C-32.96079102 0.96423584 -32.96079102 0.96423584 -31.69335938 0.55712891 C-29.98326951 0.00631469 -28.27632821 -0.55434771 -26.57226562 -1.12353516 C-16.77066126 -4.28039151 -9.72579064 -2.84515666 0 0 Z " fill="#678C96" transform="translate(271.1875,91.25)"/>
<path d="M0 0 C6.43307609 6.28346966 7.21595535 12.54211263 7.65625 21.29296875 C7.82342526 24.21772585 7.82342526 24.21772585 10 27 C12.43693311 27.36416047 12.43693311 27.36416047 15.125 27.1875 C16.03507812 27.16042969 16.94515625 27.13335937 17.8828125 27.10546875 C18.58148438 27.07066406 19.28015625 27.03585937 20 27 C21.14982602 22.90996141 21.11094256 18.96822949 21.0625 14.75 C21.05798828 14.00492187 21.05347656 13.25984375 21.04882812 12.4921875 C21.03709246 10.6614236 21.0191585 8.83070127 21 7 C38.76759978 12.02643135 56.47224147 17.21659784 74.06689453 22.8203125 C79.88360512 24.66619698 85.72625086 26.40456633 91.58666992 28.10571289 C97.72192093 29.89602263 103.81007711 31.82298032 109.89868164 33.76513672 C115.2251451 35.45761708 120.57080538 37.06528735 125.9375 38.625 C127.32566667 39.03466241 128.71369192 39.44480437 130.1015625 39.85546875 C132.59102132 40.59202039 135.0825226 41.29834229 137.5859375 41.98828125 C146.23746782 44.53346511 146.23746782 44.53346511 148.6875 48 C153.81852902 59.72806633 151.86779224 74.14347813 147.421875 85.7578125 C143.79282489 94.03284434 138.94990431 104.46166574 130 108 C121.80824138 108.68753757 115.10770493 106.48916482 107.375 103.9375 C106.08142951 103.52144675 104.78739479 103.10683436 103.49291992 102.69360352 C100.88576764 101.860509 98.28043139 101.02208022 95.67626953 100.1796875 C90.57196549 98.54175437 85.44509694 96.9839931 80.3125 95.4375 C71.1023595 92.64564075 61.90299197 89.81963709 52.70605469 86.98461914 C45.49679748 84.76386243 38.28144932 82.5640189 31.0625 80.375 C21.01688422 77.32731686 11.0024303 74.1863051 1 71 C1.38671875 70.49210937 1.7734375 69.98421875 2.171875 69.4609375 C3.25505958 68.02920342 4.33018058 66.59134376 5.3984375 65.1484375 C6.69444254 63.40989416 8.02903862 61.70016175 9.375 60 C11.58124771 55.92692731 11.53511794 53.58672521 11 49 C7.50875983 46.67250655 6.10777749 46.49700684 2 47 C-0.92033758 49.19025318 -2.79654978 52.08002718 -4.9375 55 C-8.55411199 59.91676112 -12.1609848 63.51790308 -18.3125 64.5625 C-22 64 -22 64 -23.53515625 62.390625 C-29.06765371 53.80960853 -29.06897613 44.14339295 -27.3515625 34.2734375 C-24.34033019 21.84245284 -19.28303352 10.0780119 -9 2 C-5.81247208 0.20328482 -3.68292011 -0.71861856 0 0 Z " fill="#63B7FA" transform="translate(67,271)"/>
<path d="M0 0 C3.07319325 0.58173065 6.04602556 1.25944271 9.03125 2.19140625 C9.75957031 2.41376953 10.48789063 2.63613281 11.23828125 2.86523438 C12.7471977 3.33041846 14.25501699 3.79917631 15.76171875 4.27148438 C21.27466995 5.98007094 21.27466995 5.98007094 27 6 C27.61875 5.319375 28.2375 4.63875 28.875 3.9375 C31 2 31 2 34.0625 2.0625 C35.37908828 2.35730129 36.69109386 2.67277346 38 3 C39.39992188 3.24943359 39.39992188 3.24943359 40.828125 3.50390625 C43.74091262 4.11010158 46.30409926 4.73615446 49 6 C50.375 9.5 50.375 9.5 51 13 C54.37306385 15.48250841 57.79937493 16.71368966 61.796875 17.8671875 C63.46967529 18.35578247 63.46967529 18.35578247 65.17626953 18.85424805 C66.35560059 19.19109619 67.53493164 19.52794434 68.75 19.875 C69.96413574 20.22796143 71.17827148 20.58092285 72.42919922 20.94458008 C74.85205405 21.64862864 77.27570558 22.34994206 79.70019531 23.04833984 C83.84692378 24.24425192 87.98628605 25.46421999 92.125 26.6875 C93.43219834 27.07193206 94.73948881 27.45605101 96.046875 27.83984375 C97.00110352 28.11997314 97.00110352 28.11997314 97.97460938 28.40576172 C99.41857604 28.82941346 100.8625918 29.25289789 102.30664062 29.67626953 C103.89442936 30.14180091 105.48215801 30.60753725 107.06982422 31.07348633 C108.56610205 31.5126079 110.06251361 31.95127411 111.55908203 32.3894043 C114.3884193 33.2199385 117.20229153 34.06743051 120 35 C139.13280457 37.28451398 158.04733502 29.39560753 175.95166016 23.55639648 C182.25528419 21.51032277 188.59528526 19.70119923 195 18 C202.35946207 16.04243265 209.62968846 13.90787075 216.875 11.5625 C224.88503558 8.97025079 232.920762 6.49347623 241 4.125 C242.0091748 3.8266626 243.01834961 3.5283252 244.05810547 3.22094727 C245.48340576 2.80607056 245.48340576 2.80607056 246.9375 2.3828125 C247.77152344 2.13934082 248.60554687 1.89586914 249.46484375 1.64501953 C252.29165419 0.92579446 255.11828862 0.44410654 258 0 C258.32383449 4.26771704 258.55819681 8.52880031 258.71411133 12.80517578 C258.77911849 14.25533544 258.86758361 15.70465447 258.98071289 17.15185547 C259.3529945 22.0403678 259.38183812 26.26189657 258 31 C254.14974556 34.85422117 249.90908947 36.83612277 245 39 C243.32329811 39.88921857 241.64968559 40.78430895 239.98046875 41.6875 C238.38857614 42.47016687 236.79075091 43.24087152 235.1875 44 C234.31077637 44.41588379 233.43405273 44.83176758 232.53076172 45.26025391 C184.28240226 67.4797815 125.78137008 72.48700761 74 61 C73.20416504 60.83129395 72.40833008 60.66258789 71.58837891 60.48876953 C53.66113 56.66887863 37.42661014 50.79502896 20.875 42.9375 C19.83182617 42.44306396 18.78865234 41.94862793 17.71386719 41.43920898 C15.72069199 40.4706875 13.7412041 39.47337377 11.77807617 38.4453125 C9.04412713 36.97570802 9.04412713 36.97570802 6.27856445 35.8515625 C3.50355816 34.477824 1.88968207 33.46651745 0 31 C-1.09890843 25.6684446 -0.85080062 20.51628207 -0.5625 15.125 C-0.51731435 13.65897676 -0.47625678 12.19282011 -0.43945312 10.7265625 C-0.340674 7.1482532 -0.18563479 3.57497695 0 0 Z " fill="#466469" transform="translate(127,207)"/>
<path d="M0 0 C7.26808117 1.94418031 14.48592693 4.01230522 21.6796875 6.21484375 C22.65430939 6.51185684 23.62893127 6.80886993 24.63308716 7.11488342 C27.71418675 8.05424907 30.79459816 8.9958491 33.875 9.9375 C35.93094557 10.56459745 37.98693484 11.19155164 40.04296875 11.81835938 C48.15134867 14.29134054 56.2583396 16.76868197 64.359375 19.265625 C69.35739041 20.80583978 74.36346413 22.31694994 79.375 23.8125 C89.76444639 26.9240908 100.14945278 30.0490295 110.51416016 33.2421875 C112.66501763 33.89788006 114.82031038 34.53211631 116.98046875 35.15625 C126.30206524 37.97203067 126.30206524 37.97203067 129 43 C133.78930189 52.89322946 131.16515685 66.1070202 128 76.18359375 C124.51742706 86.09288847 119.07525477 95.23598684 110 101 C104.4141199 102.93357388 100.76484727 101.39212219 95.5390625 99.3046875 C91.00700519 97.63392907 86.40171118 96.35482603 81.75 95.0625 C75.61157767 93.34471012 69.53071698 91.56558698 63.5 89.5 C57.77321562 87.54557196 52.0125195 85.82474986 46.1875 84.1875 C35.99604947 81.31990101 25.87999409 78.2338084 15.76953125 75.09375 C11.06538831 73.63296444 6.35404614 72.1988731 1.63671875 70.78125 C0.44199951 70.42015137 -0.75271973 70.05905273 -1.98364258 69.68701172 C-4.28800046 68.9910486 -6.59378645 68.29979266 -8.90112305 67.61376953 C-10.45053589 67.14366455 -10.45053589 67.14366455 -12.03125 66.6640625 C-12.94455078 66.39029785 -13.85785156 66.1165332 -14.79882812 65.83447266 C-17 65 -17 65 -19 63 C-18.23816406 62.12601562 -18.23816406 62.12601562 -17.4609375 61.234375 C-5.08008258 46.48863768 0.21484064 30.15586146 0.0625 11.125 C0.05798828 10.05507813 0.05347656 8.98515625 0.04882812 7.8828125 C0.03709748 5.25514712 0.0198054 2.62761313 0 0 Z " fill="#30A6F9" transform="translate(232,322)"/>
<path d="M0 0 C4.65665474 1.4098129 8.83377707 3.37221677 13.125 5.625 C71.91604003 35.664066 146.68124968 39.85167324 209.47412109 20.22827148 C224.8233697 15.16117318 240.24254877 9.11943946 254.20727539 0.92456055 C256 0 256 0 258 0 C258.10861833 2.70942393 258.18758577 5.414439 258.25 8.125 C258.28351563 8.88554687 258.31703125 9.64609375 258.3515625 10.4296875 C258.44381671 15.78043153 257.70582387 18.86589472 254 23 C251.58692395 24.67193782 249.40581474 26.00249085 246.8125 27.3125 C246.08345459 27.68858398 245.35440918 28.06466797 244.60327148 28.45214844 C234.14705338 33.64631223 223.07408811 37.36634393 212 41 C210.80769775 41.39445312 210.80769775 41.39445312 209.59130859 41.796875 C174.30725766 53.21207009 123.74778808 60.44928327 88.50732422 45.98339844 C83.99533282 44.21374884 79.3345699 42.92676659 74.6875 41.5625 C72.77402217 40.98283166 70.86126549 40.40077776 68.94921875 39.81640625 C67.98161621 39.52137207 67.01401367 39.22633789 66.01708984 38.92236328 C59.58180553 36.95501386 53.15159607 34.97114772 46.72070312 32.98950195 C39.38054875 30.72892329 32.03564076 28.48446923 24.6875 26.25 C23.74052246 25.9610083 22.79354492 25.6720166 21.81787109 25.37426758 C17.78892173 24.14556315 13.75896962 22.92398514 9.71484375 21.74609375 C8.53019531 21.39675781 7.34554687 21.04742187 6.125 20.6875 C5.13757813 20.40261719 4.15015625 20.11773437 3.1328125 19.82421875 C1 19 1 19 0 17 C-0.07194869 14.11629667 -0.09291708 11.25760336 -0.0625 8.375 C-0.05798828 7.57320313 -0.05347656 6.77140625 -0.04882812 5.9453125 C-0.03703168 3.96350994 -0.01909605 1.98174567 0 0 Z " fill="#537680" transform="translate(127,256)"/>
<path d="M0 0 C6.66523464 1.21913233 13.09454207 2.80167208 19.5625 4.8125 C21.32018544 5.3493745 23.07800014 5.88582597 24.8359375 6.421875 C25.70444336 6.68806641 26.57294922 6.95425781 27.46777344 7.22851562 C31.20016832 8.36565097 34.94285727 9.46649632 38.6875 10.5625 C39.37658447 10.76464111 40.06566895 10.96678223 40.77563477 11.17504883 C42.15814541 11.58060043 43.54071346 11.98595641 44.92333984 12.39111328 C48.44959344 13.42502775 51.97473257 14.46272912 55.5 15.5 C56.91666148 15.91668428 58.33332815 16.33335096 59.75 16.75 C68.25 19.25 68.25 19.25 70.37304688 19.87451172 C71.79616184 20.29301729 73.2193394 20.71131005 74.64257812 21.12939453 C78.08611976 22.14122971 81.5286596 23.15617545 84.96875 24.1796875 C88.46528584 25.21909441 91.96675992 26.24080103 95.46972656 27.25830078 C97.31728146 27.79987467 99.16270468 28.34873588 101.00683594 28.90185547 C104.29224044 29.88608848 107.58309482 30.85025826 110.875 31.8125 C112.42574219 32.28405518 112.42574219 32.28405518 114.0078125 32.76513672 C124.16683772 35.69725281 132.78816831 35.94075825 142.8125 32.5625 C144.55048372 32.0107806 146.28878671 31.46006633 148.02734375 30.91015625 C148.97206543 30.60609863 149.91678711 30.30204102 150.89013672 29.98876953 C156.21888029 28.29451522 161.57457527 26.68975394 166.93035889 25.08337402 C168.22928016 24.69370987 169.52798579 24.30332615 170.82647705 23.91223145 C179.95991401 21.16181983 189.1226712 18.5597377 198.34033203 16.10644531 C205.17207449 14.27212696 211.89336858 12.1625857 218.62109375 9.98120117 C224.03567038 8.24640548 229.38073206 6.92119147 235 6 C235 12.27 235 18.54 235 25 C188.2750912 50.95828266 124.49804374 54.42415543 73 43 C72.20416504 42.83129395 71.40833008 42.66258789 70.58837891 42.48876953 C48.28432946 37.73628152 28.24025515 29.4830664 8 19 C7.17612793 18.596604 6.35225586 18.19320801 5.50341797 17.77758789 C3.4141048 16.65493398 1.69785752 15.65555161 0 14 C-0.78125 10.44921875 -0.78125 10.44921875 -0.5 6.6875 C-0.4278125 5.43324219 -0.355625 4.17898437 -0.28125 2.88671875 C-0.1884375 1.93410156 -0.095625 0.98148438 0 0 Z " fill="#547881" transform="translate(128,225)"/>
<path d="M0 0 C3.74361355 0.40136327 7.49232066 0.73826523 11.2421875 1.07470703 C19.16218908 1.79025947 27.07774041 2.54626043 34.9921875 3.32080078 C31.8711438 5.40149658 29.39043324 6.22275348 25.8046875 7.27392578 C24.5576001 7.64300049 23.3105127 8.0120752 22.02563477 8.39233398 C20.68115865 8.78517782 19.3366761 9.17799965 17.9921875 9.57080078 C15.25057041 10.37953318 12.5100165 11.19183618 9.76953125 12.00439453 C9.09389633 12.20425461 8.41826141 12.40411469 7.72215271 12.61003113 C2.30988854 14.21503373 -3.07217803 15.90266027 -8.4453125 17.63330078 C-14.8590142 19.68757715 -21.30026146 21.50646102 -27.8203125 23.19970703 C-41.45296315 26.79346271 -54.93998111 30.98521377 -68.43725586 35.05297852 C-74.86792229 36.98772817 -81.31036369 38.88028694 -87.7578125 40.75830078 C-88.74950439 41.04729248 -89.74119629 41.33628418 -90.76293945 41.6340332 C-96.07061731 43.17916576 -101.38019076 44.71756081 -106.69140625 46.25048828 C-107.7803418 46.56574463 -108.86927734 46.88100098 -109.99121094 47.20581055 C-112.07848029 47.81001173 -114.16634355 48.41216614 -116.25488281 49.01196289 C-117.1981543 49.28532471 -118.14142578 49.55868652 -119.11328125 49.84033203 C-120.35307739 50.19768433 -120.35307739 50.19768433 -121.61791992 50.56225586 C-124.07374826 51.30771202 -124.07374826 51.30771202 -126.65209961 52.39233398 C-135.42687755 55.85077326 -145.49827868 52.48431904 -154.06591797 49.90283203 C-156.71677538 49.10830801 -159.38015062 48.36039743 -162.04345703 47.60888672 C-164.7013423 46.85689967 -167.3546772 46.08935153 -170.0078125 45.32080078 C-170.0078125 44.99080078 -170.0078125 44.66080078 -170.0078125 44.32080078 C-169.11964844 44.11326172 -168.23148438 43.90572266 -167.31640625 43.69189453 C-158.14654093 41.48039321 -149.14656993 38.88993809 -140.13671875 36.09985352 C-132.93860301 33.88094284 -125.70750413 31.81906918 -118.4453125 29.82080078 C-109.65964915 27.39751953 -100.97448368 24.75898445 -92.30737305 21.94360352 C-84.46907587 19.41850033 -76.559988 17.20409526 -68.62084961 15.02050781 C-60.89266027 12.88197189 -53.22719089 10.5761253 -45.5703125 8.19580078 C-43.39458516 7.52765645 -41.21880531 6.85968311 -39.04296875 6.19189453 C-35.34937355 5.05571568 -31.67198363 3.88420097 -28.00390625 2.66845703 C-18.38652286 -0.42214896 -10.02949949 -1.10722862 0 0 Z " fill="#547882" transform="translate(392.0078125,174.67919921875)"/>
<path d="M0 0 C6.43307609 6.28346966 7.21595535 12.54211263 7.65625 21.29296875 C7.82342526 24.21772585 7.82342526 24.21772585 10 27 C13.56769552 27.73606499 13.56769552 27.73606499 17 28 C15.68 28.33 14.36 28.66 13 29 C12.896875 30.299375 12.79375 31.59875 12.6875 32.9375 C12.151692 37.90160353 10.75069775 42.34248334 9 47 C7.9275 46.9175 6.855 46.835 5.75 46.75 C2.08247751 46.65985033 2.08247751 46.65985033 -0.0625 48.5 C-1.19098341 49.95610763 -2.30875971 51.42087916 -3.3984375 52.90625 C-7.49625689 58.48094846 -11.15538954 63.34714162 -18.3125 64.5625 C-22 64 -22 64 -23.53515625 62.390625 C-29.06765371 53.80960853 -29.06897613 44.14339295 -27.3515625 34.2734375 C-24.34033019 21.84245284 -19.28303352 10.0780119 -9 2 C-5.81247208 0.20328482 -3.68292011 -0.71861856 0 0 Z " fill="#1579F3" transform="translate(67,271)"/>
<path d="M0 0 C4.43271463 0.36939289 5.58236513 1.29231523 8.75 4.3125 C10.26171875 6.87109375 10.26171875 6.87109375 11.4375 9.75 C11.83324219 10.67683594 12.22898437 11.60367187 12.63671875 12.55859375 C15.64923681 22.71659325 16.06963184 32.96818373 16 43.5 C16.00773437 44.71236328 16.01546875 45.92472656 16.0234375 47.17382812 C16.02085937 48.32689453 16.01828125 49.47996094 16.015625 50.66796875 C16.01336914 51.70590576 16.01111328 52.74384277 16.00878906 53.81323242 C15.75 56.3125 15.75 56.3125 13.75 58.3125 C9.45546793 58.7721469 5.12877182 58.63649779 0.8125 58.625 C-0.99637695 58.64916992 -0.99637695 58.64916992 -2.84179688 58.67382812 C-3.99615234 58.67447266 -5.15050781 58.67511719 -6.33984375 58.67578125 C-7.40066162 58.67876221 -8.46147949 58.68174316 -9.55444336 58.68481445 C-12.25 58.3125 -12.25 58.3125 -14.09667969 56.99438477 C-16.00189716 54.21600984 -15.64418896 51.18203703 -15.5625 47.9375 C-15.5512207 47.19870605 -15.53994141 46.45991211 -15.52832031 45.69873047 C-14.72307252 11.63109816 -14.72307252 11.63109816 -6.5625 3.1875 C-5.799375 2.56875 -5.03625 1.95 -4.25 1.3125 C-3.25 0.3125 -3.25 0.3125 0 0 Z " fill="#E1B328" transform="translate(469.25,297.6875)"/>
<path d="M0 0 C3.34976618 0.95033608 6.67920296 1.95285816 10 3 C11.03060547 3.32484375 11.03060547 3.32484375 12.08203125 3.65625 C16.74926905 5.36452004 18.66686699 7.69267753 21 12 C25.34503854 25.03511563 20.64585667 41.11241787 15 53 C10.81975958 59.68439399 5.37031528 66.48719856 -2.25 69.125 C-7.6159782 68.94613406 -12.09008761 67.06873343 -17 65 C-17 64.01 -17 63.02 -17 62 C-15.8423886 60.8423886 -14.6795935 59.68952942 -13.4921875 58.5625 C-2.59628856 47.15318174 2.21670704 31.10388549 2.3125 15.6875 C2.31805908 14.93460693 2.32361816 14.18171387 2.3293457 13.40600586 C2.26706041 8.59406804 1.51485255 4.56869873 0 0 Z " fill="#1B94F6" transform="translate(341,355)"/>
<path d="M0 0 C1.75140143 0.45294865 3.50107344 0.91258748 5.25 1.375 C6.22453125 1.63023437 7.1990625 1.88546875 8.203125 2.1484375 C10.65837303 2.89598509 12.75617405 3.77123817 15 5 C14.67 5.99 14.34 6.98 14 8 C14.30966803 9.33902748 14.6470641 10.67172098 15 12 C16.45114461 31.33929259 10.54029628 48.47806143 -1.45703125 63.49609375 C-3 65 -3 65 -6 66 C-6 66.66 -6 67.32 -6 68 C-7.79379098 67.55005243 -9.58498928 67.08975857 -11.375 66.625 C-12.87160156 66.24214844 -12.87160156 66.24214844 -14.3984375 65.8515625 C-17 65 -17 65 -19 63 C-18.23816406 62.12601562 -18.23816406 62.12601562 -17.4609375 61.234375 C-5.08008258 46.48863768 0.21484064 30.15586146 0.0625 11.125 C0.05798828 10.05507813 0.05347656 8.98515625 0.04882812 7.8828125 C0.03709749 5.25515014 0.02068228 2.62760462 0 0 Z " fill="#1B93F4" transform="translate(232,322)"/>
<path d="M0 0 C4.76506238 2.15052441 7.6885682 4.39535161 9.8359375 9.31640625 C10.4582192 14.18021727 10.50981902 18.59426458 8.7109375 23.19140625 C4.42608885 28.04756805 0.69473471 31.08207861 -5.9765625 31.62890625 C-10.36767244 31.56444959 -12.77561196 30.16578511 -16.1640625 27.31640625 C-20.4663384 22.54901944 -21.52688753 18.8789333 -21.4453125 12.59765625 C-20.85586861 7.81661139 -18.01585453 5.06679447 -14.5390625 2.00390625 C-9.92403886 -1.27518949 -5.38152101 -1.69993895 0 0 Z " fill="#FADA44" transform="translate(475.1640625,251.68359375)"/>
<path d="M0 0 C5.50516855 1.34227143 10.9450555 2.81939519 16.375 4.4375 C17.47992798 4.76463989 17.47992798 4.76463989 18.60717773 5.09838867 C24.07536845 6.71910448 29.54054336 8.3500905 35 10 C31.67599431 11.81162354 28.30783237 12.91092234 24.6875 14 C23.59824219 14.33 22.50898438 14.66 21.38671875 15 C19.71029297 15.495 19.71029297 15.495 18 16 C16.86433594 16.36480469 15.72867188 16.72960937 14.55859375 17.10546875 C10.76043269 18.06022054 7.26285474 18.34101836 3.375 18.3125 C2.60953857 18.31121094 1.84407715 18.30992187 1.05541992 18.30859375 C-14.31505028 18.07890521 -29.69679214 16.36168009 -45 15 C-42.05030772 13.42278445 -39.16410884 12.35581168 -35.95703125 11.4140625 C-34.48073242 10.98009155 -34.48073242 10.98009155 -32.97460938 10.53735352 C-31.93111328 10.23627686 -30.88761719 9.9352002 -29.8125 9.625 C-28.74708984 9.31554443 -27.68167969 9.00608887 -26.58398438 8.68725586 C-17.78501879 6.16184704 -8.9413106 3.95591169 0 2 C0 1.34 0 0.68 0 0 Z " fill="#53767F" transform="translate(461,148)"/>
<path d="M0 0 C5.81190892 15.8506607 6.77194717 33.22150113 6 50 C5 51 5 51 1.83984375 51.09765625 C0.55207031 51.08605469 -0.73570312 51.07445312 -2.0625 51.0625 C-3.35285156 51.05347656 -4.64320313 51.04445313 -5.97265625 51.03515625 C-6.97167969 51.02355469 -7.97070312 51.01195312 -9 51 C-12.83969515 43.3206097 -9.91966602 29.3010896 -9.1875 21 C-9.11748779 20.14108154 -9.04747559 19.28216309 -8.9753418 18.3972168 C-8.42860544 12.76577777 -7.55764184 7.10840276 -5 2 C-2 0 -2 0 0 0 Z " fill="#F5C32C" transform="translate(464,304)"/>
<path d="M0 0 C0.10861833 2.70942393 0.18758577 5.414439 0.25 8.125 C0.30027344 9.26582031 0.30027344 9.26582031 0.3515625 10.4296875 C0.44382508 15.78091735 -0.23861818 18.90724451 -4 23 C-6.77298596 24.89670819 -9.67441534 26.39735715 -12.6875 27.875 C-13.47189453 28.2771875 -14.25628906 28.679375 -15.06445312 29.09375 C-20.78304369 32 -20.78304369 32 -22 32 C-22 24.74 -22 17.48 -22 10 C-16.66666667 7.33333333 -11.33333333 4.66666667 -6 2 C-5.30100586 1.62987793 -4.60201172 1.25975586 -3.88183594 0.87841797 C-2 0 -2 0 0 0 Z " fill="#456368" transform="translate(385,256)"/>
<path d="M0 0 C6.34605434 -0.4532896 10.73611459 0.28500123 16 4 C19.58407762 7.67367956 20.27015703 10.58237316 20.4375 15.5625 C20.21982035 20.75170188 19.38726848 23.71709298 15.5703125 27.3671875 C11.71465758 30.76246571 8.89615392 32.14583859 3.8125 32.0625 C2.554375 32.041875 1.29625 32.02125 0 32 C0.433125 31.41734375 0.86625 30.8346875 1.3125 30.234375 C5.22273482 24.47764041 6.93565616 19.98129318 6.609375 12.984375 C5.58360535 7.96073391 3.02647145 4.07132468 0 0 Z " fill="#F2C02C" transform="translate(465,251)"/>
</svg>
